<svg width="110" height="120" viewBox="0 0 110 120" fill="none" xmlns="http://www.w3.org/2000/svg">
<circle cx="53" cy="55.9999" r="50" fill="#1C130E"/>
<g filter="url(#filter0_d_577_10)">
<path d="M43.2675 71.9246C43.409 72.7421 43.3324 73.5822 43.0377 74.4452C42.8057 75.2124 42.2222 75.6893 41.2871 75.8759C39.8531 76.2037 38.4731 76.0875 37.1471 75.5272C35.9042 74.9435 35.2011 74.3629 35.0377 73.7855C33.3442 67.4828 31.2874 61.1659 28.8674 54.8349C26.5101 48.4082 23.8304 42.1116 20.8283 35.9453C20.7466 35.6566 20.7379 35.3083 20.8021 34.9004C20.8867 34.5646 21.0027 34.181 21.15 33.7496C21.2769 33.2459 21.5804 32.7313 22.0603 32.2058C22.5811 31.8245 23.215 31.6842 23.9619 31.7847C24.7919 31.8616 25.6212 32.0947 26.4498 32.4838C27.2784 32.873 28.0442 33.3579 28.7473 33.9385C29.4505 34.5191 30.0187 35.0989 30.4519 35.6778C31.1098 37.0507 31.8085 38.568 32.5481 40.2296C33.2877 41.8912 34.0061 43.6368 34.7034 45.4663C36.4335 43.9633 38.0499 42.3757 39.5524 40.7033C41.055 39.0309 42.2775 37.3208 43.2199 35.573C44.2454 33.8017 44.9282 32.0885 45.2681 30.4332C45.5876 28.7058 45.398 27.0835 44.6992 25.5662C44.1858 24.3863 43.2456 23.4441 41.8787 22.7395C40.5119 22.0349 38.6344 21.7476 36.2464 21.8776C30.8051 22.3259 26.1801 23.5956 22.3711 25.6867C18.5418 27.7056 15.0524 30.291 11.9028 33.4428C11.0261 34.4704 10.1508 35.1858 9.27698 35.589C8.40317 35.9921 7.60302 36.1795 6.87655 36.1512C6.15008 36.1229 5.55928 35.9393 5.10414 35.6004C4.64901 35.2614 4.36017 34.8754 4.23764 34.4424C3.93424 32.7353 4.43025 30.9969 5.72568 29.2272C7.08383 27.3618 8.5864 25.6894 10.2334 24.21C12.4216 22.4216 15.2429 20.6489 18.6973 18.8919C22.1517 17.135 25.7389 15.8472 29.4588 15.0285C33.2414 14.1141 36.9482 13.8838 40.5791 14.3375C44.21 14.7912 47.3274 16.2867 49.9313 18.824C52.5322 21.9857 53.7838 25.1394 53.686 28.2852C53.6714 31.4075 52.8785 34.4771 51.3073 37.4941C49.7362 40.5111 47.6982 43.4653 45.1934 46.3567C42.6683 49.176 40.2685 51.8038 37.9942 54.2402C39.0591 57.3689 40.0204 60.4488 40.8781 63.4802C41.819 66.488 42.6154 69.3028 43.2675 71.9246Z" fill="#FBBC81"/>
<path d="M86.5797 99.3085C86.7212 100.126 86.6446 100.966 86.3499 101.829C86.1179 102.596 85.5344 103.073 84.5993 103.26C83.1653 103.588 81.7853 103.471 80.4593 102.911C79.2164 102.327 78.5133 101.747 78.3499 101.169C76.6564 94.8667 74.5996 88.5498 72.1796 82.2188C69.8223 75.792 67.1426 69.4955 64.1405 63.3292C64.0589 63.0405 64.0501 62.6922 64.1143 62.2842C64.1989 61.9485 64.3149 61.5649 64.4622 61.1334C64.5892 60.6298 64.8926 60.1152 65.3725 59.5896C65.8933 59.2084 66.5272 59.0681 67.2741 59.1685C68.1041 59.2455 68.9334 59.4785 69.762 59.8677C70.5906 60.2569 71.3564 60.7418 72.0596 61.3224C72.7627 61.9029 73.3309 62.4827 73.7641 63.0617C74.422 64.4346 75.1207 65.9519 75.8603 67.6135C76.5999 69.2751 77.3183 71.0206 78.0156 72.8501C79.7457 71.3472 81.3621 69.7595 82.8646 68.0871C84.3672 66.4147 85.5897 64.7047 86.5321 62.9569C87.5577 61.1856 88.2404 59.4723 88.5803 57.8171C88.8998 56.0897 88.7102 54.4674 88.0115 52.9501C87.498 51.7702 86.5578 50.8279 85.191 50.1233C83.8241 49.4188 81.9466 49.1315 79.5586 49.2615C74.1174 49.7098 69.4923 50.9795 65.6834 53.0706C61.854 55.0895 58.3646 57.6749 55.215 60.8267C54.3383 61.8543 53.463 62.5697 52.5892 62.9728C51.7154 63.376 50.9152 63.5634 50.1888 63.5351C49.4623 63.5068 48.8715 63.3232 48.4164 62.9842C47.9612 62.6453 47.6724 62.2593 47.5499 61.8263C47.2465 60.1192 47.7425 58.3808 49.0379 56.6111C50.3961 54.7457 51.8986 53.0733 53.5456 51.5939C55.7338 49.8055 58.5551 48.0328 62.0095 46.2758C65.464 44.5189 69.0511 43.231 72.771 42.4123C76.5536 41.498 80.2604 41.2676 83.8913 41.7214C87.5222 42.1751 90.6396 43.6706 93.2435 46.2079C95.8444 49.3696 97.096 52.5233 96.9982 55.6691C96.9836 58.7914 96.1907 61.861 94.6196 64.878C93.0484 67.895 91.0104 70.8492 88.5057 73.7406C85.9805 76.5599 83.5807 79.1877 81.3065 81.6241C82.3713 84.7527 83.3326 87.8327 84.1903 90.8641C85.1312 93.8719 85.9276 96.6867 86.5797 99.3085Z" fill="#FBBC81"/>
</g>
<defs>
<filter id="filter0_d_577_10" x="0.151306" y="14.1118" width="100.852" height="97.3295" filterUnits="userSpaceOnUse" color-interpolation-filters="sRGB">
<feFlood flood-opacity="0" result="BackgroundImageFix"/>
<feColorMatrix in="SourceAlpha" type="matrix" values="0 0 0 0 0 0 0 0 0 0 0 0 0 0 0 0 0 0 127 0" result="hardAlpha"/>
<feOffset dy="4"/>
<feGaussianBlur stdDeviation="2"/>
<feComposite in2="hardAlpha" operator="out"/>
<feColorMatrix type="matrix" values="0 0 0 0 0.984314 0 0 0 0 0.737255 0 0 0 0 0.505882 0 0 0 0.26 0"/>
<feBlend mode="normal" in2="BackgroundImageFix" result="effect1_dropShadow_577_10"/>
<feBlend mode="normal" in="SourceGraphic" in2="effect1_dropShadow_577_10" result="shape"/>
</filter>
</defs>
</svg>
